<svg fill='white' xmlns="http://www.w3.org/2000/svg" viewBox="0 0 327.89 196.6"><defs><style>.cls-1{isolation:isolate;}.cls-2{opacity:0.9;mix-blend-mode:darken;}</style></defs><title>logo-06</title><g class="cls-1"><g id="Layer_2_copy" data-name="Layer 2 copy"><path d="M316.5,173.3H186.14a25.84,25.84,0,0,1-44.78,0H11a4.75,4.75,0,1,0,0,9.49H135.32a36.18,36.18,0,0,0,56.87,0H316.5a4.75,4.75,0,1,0,0-9.49Z"/><path d="M195.92,168.89A56.21,56.21,0,0,1,162.63,158l-.11.05-1.09-1-1.24-1.24.7-.92V151l1.71,1.61.17-.22c.49-.61,1-1.22,1.5-1.8,1.27-1.45,2.5-2.73,3.75-3.91.13-.13.3-.29.48-.45a56.42,56.42,0,0,1,25.7-13.64c1.51-.35,3.09-.65,4.7-.88a57.05,57.05,0,0,1,14.38-.26,55.2,55.2,0,0,1,5.83.95,56.33,56.33,0,0,1,18,7.36c1.51.94,3,2,4.35,3L243,144l-1.15,1.58a56.29,56.29,0,0,1-37.69,22.71A57.65,57.65,0,0,1,195.92,168.89Zm-30.27-13.66a52.73,52.73,0,0,0,71.8-10.43c-.79-.56-1.61-1.1-2.44-1.62a52.4,52.4,0,0,0-16.77-6.84,51.28,51.28,0,0,0-5.41-.88,53.12,53.12,0,0,0-13.37.24c-1.49.22-3,.5-4.37.82a51.6,51.6,0,0,0-9.23,3.06,52.12,52.12,0,0,0-14.69,9.65l-.37.35c-1.2,1.13-2.34,2.32-3.53,3.68-.47.54-.94,1.09-1.38,1.65Z"/><path d="M175.83,159.34q-2.69,0-5.41-.27a52.19,52.19,0,0,1-7.83-1.36,2.18,2.18,0,0,1-.4-.1l-1.35-.47v-1.86L161,155c.16-.65.32-1.29.5-1.93l0-.07.06-.23.06-.21c.13-.45.27-.91.41-1.36l0-.11c.22-.69.46-1.39.71-2.08a53.82,53.82,0,0,1,14-21l.08-.08a54,54,0,0,1,20.64-11.84c1.46-.46,3-.86,4.65-1.21a53.16,53.16,0,0,1,20.48-.31c1.27.22,2.6.51,3.94.85l1.9.48-.44,1.91a53.37,53.37,0,0,1-5.41,14c-.71,1.28-1.47,2.53-2.27,3.72a53.75,53.75,0,0,1-44.49,23.83Zm-10.42-5.09a48.15,48.15,0,0,0,5.41.83A49.7,49.7,0,0,0,217,133.28c.74-1.1,1.44-2.25,2.1-3.43a49.43,49.43,0,0,0,4.52-11c-.58-.12-1.15-.24-1.71-.33a49.16,49.16,0,0,0-19,.29c-1.54.33-2.94.69-4.29,1.12a50,50,0,0,0-19,10.9l-.08.08a49.83,49.83,0,0,0-13,19.47c-.23.64-.46,1.29-.67,1.95s-.3,1-.42,1.42l0,.1v.44Z"/><path d="M161.09,158l-.55-2.17c0-.12-.05-.25-.08-.38-.2-.89-.38-1.82-.53-2.78,0-.13,0-.26-.06-.39s-.08-.53-.12-.79-.08-.54-.11-.85-.09-.68-.12-1.07c0-.17,0-.33,0-.49-.07-.69-.13-1.47-.17-2.33,0-.54-.05-1.11-.06-1.69a54.09,54.09,0,0,1,.32-6.83v-.1a52.91,52.91,0,0,1,1-5.84h0l.27-1.1.13-.49.27-1a54.07,54.07,0,0,1,14.36-24.09c.6-.59,1.22-1.16,1.89-1.74A53.71,53.71,0,0,1,200.33,92c.6-.15,1.22-.29,1.85-.41l1.91-.39.44,1.9a53.54,53.54,0,0,1,1,18.43,50.69,50.69,0,0,1-1,5.72,53,53,0,0,1-4.5,12.28l-.58,1.09c-.63,1.18-1.33,2.36-2.08,3.52q-.52.8-1.06,1.57a53.36,53.36,0,0,1-22.61,18.58,52.34,52.34,0,0,1-6.86,2.46c-1.14.33-2.22.6-3.3.83l-.2.1-.37,0Zm2.82-5.84c.06.38.12.76.2,1.15l1.6-.43a48.51,48.51,0,0,0,6.35-2.27A49.39,49.39,0,0,0,193,133.44c.34-.48.66-1,1-1.45a48.18,48.18,0,0,0,2.44-4.26l.55-1.1a48.87,48.87,0,0,0,3.62-10.27,46.32,46.32,0,0,0,.93-5.28h0A49.5,49.5,0,0,0,201,96a49.72,49.72,0,0,0-20.9,10.92c-.59.52-1.17,1-1.74,1.6A50.05,50.05,0,0,0,165,131.11l.13.13-.46,1.12a48.84,48.84,0,0,0-1.1,6.15v.12a50,50,0,0,0-.31,6.4c0,.53,0,1,.06,1.55,0,.77.08,1.49.16,2.21,0,.17,0,.26,0,.36v.11c0,.3.06.61.1.92s.05.5.09.7l0,.14c0,.21.05.43.09.64Z"/><path d="M162.64,158.46l-1.33-1.3-.06-.06,0,0-.19-.2a52.35,52.35,0,0,1-3.59-4c-.1-.11-.24-.28-.37-.46s-.43-.54-.65-.82L156,151c-.62-.83-1.18-1.62-1.69-2.39l-.44-.44v-.24c-1-1.5-1.9-3.1-2.81-4.87l-.22-.45-.09-.18h0l-.17-.35a55.9,55.9,0,0,1-4.22-11.91c-.21-.9-.41-1.83-.57-2.75l0-.17A57.05,57.05,0,0,1,146,106c.12-.6.25-1.21.4-1.82a56.28,56.28,0,0,1,16.22-28.14l1.42-1.34,1.38,1.39a56.84,56.84,0,0,1,7.78,9.83l.39.44v.2a56.28,56.28,0,0,1,5.61,12.34,55.34,55.34,0,0,1,1.56,6.11,57,57,0,0,1,1.05,11.91h0c0,1.46-.11,2.94-.24,4.39a56.08,56.08,0,0,1-1.46,8.56l-.13.48a54.34,54.34,0,0,1-2,6.22v1.62h-.66a55.76,55.76,0,0,1-5.92,10.61v.55l-.67.36c-.9,1.24-1.89,2.46-2.92,3.64-.54.63-1.14,1.28-1.75,1.91s-1.09,1.12-1.67,1.67l-.75.75h-.08Zm-2.6-8.79.17.2.1.13a3.3,3.3,0,0,0,.22.27c.73.92,1.48,1.79,2.25,2.63l.41-.42c.57-.58,1.11-1.17,1.62-1.76.93-1.05,1.8-2.13,2.6-3.23v-.06l.65-.83a51.66,51.66,0,0,0,6.07-11.15l.39-1a50.4,50.4,0,0,0,1.73-5.57l.13-.49a52.3,52.3,0,0,0,1.24-7.47c.12-1.35.2-2.72.22-4.09h0a53,53,0,0,0-1-11.08,51.86,51.86,0,0,0-1.45-5.67,52.39,52.39,0,0,0-5.46-11.88l0-.06A52.46,52.46,0,0,0,164,80.35a52.29,52.29,0,0,0-13.66,24.79c-.15.57-.26,1.1-.36,1.64a53.09,53.09,0,0,0-.19,19.93l0,.19c.14.79.31,1.58.49,2.35A51.94,51.94,0,0,0,154,140l.37.33v.44l.24.48.22.43a51.08,51.08,0,0,0,2.69,4.56l.34.51c.51.76,1.08,1.55,1.73,2.4Zm9.79-1.53h0l-.32-.2Z"/><path d="M164.46,157.73l-3.6,0v-.41a51.93,51.93,0,0,1-5.52-1.64h0l-.34-.12c-1.36-.5-2.61-1-3.84-1.58a53.34,53.34,0,0,1-22.33-19h-.92v-1.42a52.22,52.22,0,0,1-2.56-4.57c-.07-.12-.15-.28-.22-.45l0-.08A52.42,52.42,0,0,1,121,116.62c-.34-1.54-.61-3.09-.8-4.6a53.56,53.56,0,0,1,.92-19l.44-1.91,1.92.39a53.88,53.88,0,0,1,22.72,10.67c1.18,1,2.23,1.86,3.21,2.78a53.61,53.61,0,0,1,8.43,10.16l.23.36.4.4v.26a52.8,52.8,0,0,1,4.05,8.08,51.63,51.63,0,0,1,2.26,7l.06.24a52.89,52.89,0,0,1,1.32,8.15v.09a55,55,0,0,1,.15,6.1v0c0,.25,0,.49,0,.75q-.06,1.58-.28,3.51c-.06.6-.14,1.22-.23,1.83l0,.18c-.07.47-.15.94-.23,1.41l0,.24v.64l-.15.16c-.08.41-.17.82-.26,1.22l0,.17-.07.31v0Zm-8.35-6,.27.1a48,48,0,0,0,5,1.54v-.08l.12-.63c.07-.37.13-.75.18-1.12l0-.17c.08-.54.15-1.11.21-1.67.14-1.2.22-2.27.26-3.3,0-.27,0-.48,0-.68a50.87,50.87,0,0,0-.15-5.72v-.09a48.85,48.85,0,0,0-1.27-7.67l-.06-.25a47.66,47.66,0,0,0-2-6.24,48.85,48.85,0,0,0-3.92-7.75l0,0-.37-.62h0a49.71,49.71,0,0,0-7.82-9.42c-.9-.85-1.87-1.69-3-2.57a49.83,49.83,0,0,0-19.08-9.43,49.52,49.52,0,0,0-.45,15.65c.17,1.4.42,2.82.74,4.24a48.42,48.42,0,0,0,3.67,10.68l.08.12.13.3c0,.11.11.22.17.33q1.07,2.16,2.36,4.23l.33.51a49.39,49.39,0,0,0,21.23,18.4C153.88,150.82,155,151.26,156.11,151.69Z"/><path d="M150.5,159.19q-1.09,0-2.17,0a53.64,53.64,0,0,1-26.24-8.1,53.09,53.09,0,0,1-17.27-17.33l-1.56-2.54.35-.06q-.58-.83-1.14-1.71L102,129v-.43A53.72,53.72,0,0,1,98,117l-.42-1.91,1.9-.46a53.23,53.23,0,0,1,22.28-.68c.5.09,1,.19,1.52.3a53.42,53.42,0,0,1,17.35,7,54.24,54.24,0,0,1,7.12,5.3c.61.52,1.24,1.11,1.93,1.78a53.72,53.72,0,0,1,7.9,9.72l.42.43v.26a51.7,51.7,0,0,1,2.57,4.72l.2.41c.58,1.21,1.12,2.47,1.6,3.74h0l.57,1.57c.08.21.15.44.22.65l0,.12c.08.23.15.47.22.7s.11.35.18.57l.11.36.09.32,0,.08c.28,1,.52,1.9.73,2.81l.16.18v2l-1.32.7-.27.06A54.22,54.22,0,0,1,150.5,159.19ZM109.81,134a49.14,49.14,0,0,0,14.4,13.62,49.63,49.63,0,0,0,36.14,6.56q-.16-.62-.35-1.26l-.17-.59c-.05-.17-.1-.34-.17-.52s-.14-.47-.21-.65l0-.13c-.06-.17-.12-.35-.18-.52l-.22-.63-.29-.26v-.54c-.51-1.34-1.08-2.66-1.7-3.93l-.2-.43a48,48,0,0,0-2.34-4.22l-.42-.42v-.25a49.66,49.66,0,0,0-7.11-8.68c-.63-.61-1.21-1.15-1.77-1.63a50.25,50.25,0,0,0-6.6-4.92,49.43,49.43,0,0,0-16.07-6.47l-1.39-.27a49.18,49.18,0,0,0-18.68.19,49.28,49.28,0,0,0,3.25,8.85h0l.35.33v.28c.88,1.35,1.78,2.62,2.69,3.76l2,2.54Z"/><path d="M131.34,167.77a57.5,57.5,0,0,1-10.33-.94,56.32,56.32,0,0,1-36.84-24.07l-1.09-1.62L84.68,140l.68-.47a56.39,56.39,0,0,1,20.76-8.84l.56-.11a56.69,56.69,0,0,1,21-.1c.92.17,1.81.36,2.7.56l1.08.26a56.59,56.59,0,0,1,25.88,14.6l.59.6c.88.89,1.73,1.82,2.52,2.75.13.15.28.31.42.49l.15.18c1.12,1.34,2.15,2.69,3.09,4.06l.26.38.47.44v1.86l-.78.6-.25.17A56.25,56.25,0,0,1,131.34,167.77Zm-42.7-25.62a52.73,52.73,0,0,0,71.38,13c-.66-.91-1.34-1.78-2.05-2.63l-.25-.29c-.09-.12-.2-.23-.3-.35q-1.38-1.62-2.9-3.12l-.6-.59a52.59,52.59,0,0,0-23.46-13l-1-.24c-.85-.2-1.7-.37-2.55-.53a52.65,52.65,0,0,0-19.41.08l-.67.13A52.29,52.29,0,0,0,88.64,142.15Z"/><path d="M219.35,114.65a35.89,35.89,0,0,1-10.95-1.71l-1.82-.59.57-2.06a34.59,34.59,0,0,1,1.42-3.89A35.79,35.79,0,0,1,224.65,89a35.83,35.83,0,0,1,27.6-2.44l1.86.6-.55,1.87a35.76,35.76,0,0,1-30.12,25.36h-.12A35.33,35.33,0,0,1,219.35,114.65Zm-7.79-5a31.89,31.89,0,0,0,11.41.75h.12a31.77,31.77,0,0,0,26-20.59q-.93-.23-1.9-.41A31.71,31.71,0,0,0,212.24,108Q211.88,108.84,211.56,109.69Z"/><path d="M180.82,96.84,180.31,95a35.92,35.92,0,0,1-1.06-5.64,35.74,35.74,0,0,1,25.16-37.9c.59-.18,1.2-.35,1.81-.5l1.89-.46.51,1.88a35.44,35.44,0,0,1-3.69,27.46h0a35.45,35.45,0,0,1-22.21,16.57Zm24.4-41.49a31.73,31.73,0,0,0-22,33.54c.11,1,.27,2,.47,3a31.45,31.45,0,0,0,17.78-14.17h0A31.44,31.44,0,0,0,205.22,55.35Z"/><path d="M51,155.52a40.17,40.17,0,0,1-26.19-9.67l-1.49-1.27,1.23-1.52c.5-.62,1-1.24,1.6-1.85a40.53,40.53,0,0,1,56.12-3.45L83.75,139l-1.24,1.52a40.29,40.29,0,0,1-27.75,14.79Q52.87,155.52,51,155.52ZM29,144.07a36.54,36.54,0,0,0,49.14-4.51q-1.19-.9-2.42-1.69a36.5,36.5,0,0,0-46.59,6.06Z"/><path d="M104.82,110a35.82,35.82,0,0,1-32.5-21,36.73,36.73,0,0,1-2.24-6.65l-.44-1.91,1.9-.48a35.65,35.65,0,0,1,43.62,26.59l.44,1.9-1.89.48A36,36,0,0,1,104.82,110ZM74.5,83.39a32.72,32.72,0,0,0,1.47,4,31.76,31.76,0,0,0,34.77,18.13A31.73,31.73,0,0,0,74.5,83.39Z"/><path d="M147.43,98.9l-1.91-.43a35.47,35.47,0,0,1-22.59-16.05,35.65,35.65,0,0,1-4.32-27.36l.47-1.9,1.91.42a35.53,35.53,0,0,1,22,15.09l.12.18.5.78A35.42,35.42,0,0,1,147.9,97ZM122.07,58a31.74,31.74,0,0,0,22.37,36.08,31.42,31.42,0,0,0-4.26-22.33l-.45-.71-.11-.17A31.49,31.49,0,0,0,122.07,58Z"/><path d="M164.42,78.87,163,77.55a35.72,35.72,0,0,1-.14-51.08l1.4-1.37,1.4,1.37a36.12,36.12,0,0,1,4.83,5.82,35.74,35.74,0,0,1-4.63,45.21Zm-.19-48.09a31.64,31.64,0,0,0-1.37,40.66q.7.91,1.5,1.79A31.47,31.47,0,0,0,172.43,52h0a31.53,31.53,0,0,0-5.31-17.48A32.08,32.08,0,0,0,164.23,30.78Z"/><path d="M244.85,134.06a28.21,28.21,0,0,1-14-3.75l-1.7-1,.93-1.72A28.38,28.38,0,0,1,264.3,114.3a28.59,28.59,0,0,1,4.81,2.18l1.7,1-.93,1.72A28.21,28.21,0,0,1,252.7,133,28.62,28.62,0,0,1,244.85,134.06Zm-10.23-6.28A24.42,24.42,0,0,0,265.32,119a24.49,24.49,0,0,0-2.32-.94,24.37,24.37,0,0,0-27.76,8.81C235,127.18,234.82,127.48,234.62,127.77Z"/><path d="M215.34,88.88a22.92,22.92,0,0,1-2.86-.18l-1.94-.24.2-1.94a22.64,22.64,0,0,1,21.21-20.3,22.91,22.91,0,0,1,4.12.14l1.94.24-.2,1.95a22.65,22.65,0,0,1-22.46,20.33Zm-.3-4A18.66,18.66,0,0,0,233.5,70.18c-.45,0-.89,0-1.33,0A18.67,18.67,0,0,0,215,84.87Z"/><path d="M179.75,63.94l-.62-1.84a24.77,24.77,0,0,1-1.2-5.9,25.35,25.35,0,0,1,16.13-25.73c.5-.2,1.07-.4,1.72-.6l1.87-.57.62,1.86a25.17,25.17,0,0,1-1.54,19.61,25.43,25.43,0,0,1-2,3.28l-.07.1a25.47,25.47,0,0,1-13,9.23ZM195,34.39a21.35,21.35,0,0,0-13.1,21.48,20.8,20.8,0,0,0,.46,3,21.6,21.6,0,0,0,9.08-7.15l.06-.08a21.38,21.38,0,0,0,1.65-2.69h0A21.18,21.18,0,0,0,195,34.39Z"/><path d="M82.19,129A22.69,22.69,0,0,1,61.37,115.3l-.79-1.85,2-.86a22.63,22.63,0,0,1,26.79,6.56,22.67,22.67,0,0,1,3.14,5.25l.77,1.8-1.78.81A22.58,22.58,0,0,1,82.19,129ZM66,115.58a18.64,18.64,0,0,0,22,8.54,18.64,18.64,0,0,0-22-8.54Z"/><path d="M118.54,88.39l-2-.12A25.37,25.37,0,0,1,92.84,60.86L93,58.91l1.95.12a25.17,25.17,0,0,1,17.65,8.7c.52.61,1,1.18,1.41,1.78a25.31,25.31,0,0,1,4.7,16.94ZM96.75,63.24A21.47,21.47,0,0,0,98.32,71a21.37,21.37,0,0,0,16.47,13.08,21.3,21.3,0,0,0-4-12.21c-.36-.5-.75-1-1.19-1.51A21.17,21.17,0,0,0,96.75,63.24Z"/><path d="M147.26,65.47l-1.8-.76a26.17,26.17,0,0,1-14-14.16c-.06-.12-.11-.25-.16-.37l0-.11a26.16,26.16,0,0,1,.52-20.5l.81-1.78,1.8.76a26.4,26.4,0,0,1,13.73,35.14ZM134.61,33.11a22.16,22.16,0,0,0,.31,15.46l.05.13.06.15.06.12a22.17,22.17,0,0,0,10.08,11.17,22.38,22.38,0,0,0-10.56-27Z"/><path d="M281.41,129.49a12.37,12.37,0,0,1-7.69-2.67l-1.53-1.21,1.17-1.56a12.39,12.39,0,0,1,3.46-3.16l.5-.29a12.17,12.17,0,0,1,4.43-1.47,12.88,12.88,0,0,1,2.72-.07,12.56,12.56,0,0,1,6.65,2.63l1.54,1.21-1.17,1.57a12.43,12.43,0,0,1-8.39,4.92A12.76,12.76,0,0,1,281.41,129.49Zm-3.27-4.66a8.58,8.58,0,0,0,8.56-1.14,8.5,8.5,0,0,0-2.57-.64,9,9,0,0,0-1.86.05,8.16,8.16,0,0,0-3.34,1.19l-.38.24Z"/><path d="M49.74,125.38a12.66,12.66,0,0,1-3.31-.44,12.47,12.47,0,0,1-7.66-6l-1-1.71,1.69-1a12.11,12.11,0,0,1,1.81-.87,12.33,12.33,0,0,1,7.83-.41A12.13,12.13,0,0,1,51.82,116a12.4,12.4,0,0,1,5,4.92l.95,1.71-1.69,1A12.52,12.52,0,0,1,49.74,125.38Zm-6.12-6.56A8.55,8.55,0,0,0,52,121.08a8.45,8.45,0,0,0-2-1.53,8.23,8.23,0,0,0-1.82-.73A8.4,8.4,0,0,0,43.62,118.81Z"/><path d="M268.58,87.06a10.59,10.59,0,0,1-4.39-1l-1.78-.81.77-1.8A10.63,10.63,0,0,1,277.34,78l1.78.81-.77,1.8a10.66,10.66,0,0,1-9.78,6.46Zm-.38-4A6.54,6.54,0,0,0,271,82.6,6.62,6.62,0,0,0,273.33,81a6.68,6.68,0,0,0-5.14,2Z"/><path d="M206.06,47.35l-.16-2a14.54,14.54,0,0,1,1-6.49,14.27,14.27,0,0,1,2.55-4.24,14.57,14.57,0,0,1,10.11-5l2-.13.16,2a14.43,14.43,0,0,1-3.5,10.73h0a14.47,14.47,0,0,1-10.11,5ZM217.6,34q-.4.11-.78.25a10.49,10.49,0,0,0-4.4,3,10.31,10.31,0,0,0-1.85,3.07,10.47,10.47,0,0,0-.64,2.52A10.56,10.56,0,0,0,217.6,34Z"/><path d="M7.68,151.65a11.72,11.72,0,0,1-6-1.66L0,149l1-1.71A11.77,11.77,0,0,1,5.14,143a11.53,11.53,0,0,1,3-1.3,11.37,11.37,0,0,1,1.65-.31A11.87,11.87,0,0,1,17.24,143l1.69,1-1,1.71a11.73,11.73,0,0,1-7.22,5.59A12,12,0,0,1,7.68,151.65Zm-1.81-4.22a7.79,7.79,0,0,0,7.17-1.91,7.75,7.75,0,0,0-2.75-.16,7.47,7.47,0,0,0-1.09.21,7.61,7.61,0,0,0-2,.85A7.79,7.79,0,0,0,5.88,147.43Z"/><path d="M273.82,161.23q-1.9,0-3.81-.18a40.22,40.22,0,0,1-27.75-14.79L241,144.74l1.49-1.27c.37-.32.75-.63,1.14-.93a40.53,40.53,0,0,1,52.63,2,41.22,41.22,0,0,1,3.94,4.2l1.23,1.52L300,151.55A40.1,40.1,0,0,1,273.82,161.23Zm-27.14-16a36.54,36.54,0,0,0,49.14,4.5c-.71-.78-1.46-1.54-2.25-2.27a36.54,36.54,0,0,0-46.9-2.23Z"/><path d="M320.79,159.22a10.79,10.79,0,0,1-2.79-.37,10.55,10.55,0,0,1-6.55-5.07l-1-1.7,1.68-1a11,11,0,0,1,2.07-.95l0,0,.36-.1.11,0,2.56-.74v.36a10.83,10.83,0,0,1,3.08.36l.32.09h0l.18.06.1,0a10.61,10.61,0,0,1,5.92,4.88l1,1.7-1.67,1A10.54,10.54,0,0,1,320.79,159.22Zm-4.31-5.54a6.79,6.79,0,0,0,5.42,1.44A6.63,6.63,0,0,0,320,154h0l-.34-.12-.32-.1A6.73,6.73,0,0,0,316.49,153.68Z"/><path d="M59.83,83.12a10.06,10.06,0,0,1-3.64-.68A10,10,0,0,1,50.55,77l-.77-1.8,1.79-.81a10.18,10.18,0,0,1,7.84-.24l.12,0,.06,0a9.91,9.91,0,0,1,5.47,5.35l.76,1.8L64,82.2A10.16,10.16,0,0,1,59.83,83.12ZM55.67,77.5a6.06,6.06,0,0,0,2,1.2,6.18,6.18,0,0,0,2.31.41,6,6,0,0,0-1.87-1.17l-.11,0h0A5.91,5.91,0,0,0,55.67,77.5Z"/><path d="M113.47,54.12,111.52,54a14.4,14.4,0,0,1-10.11-5,14.19,14.19,0,0,1-3-5.5,14,14,0,0,1-.52-5.23l.17-1.95,1.95.12a14.42,14.42,0,0,1,9.92,4.8l.23.26a14.34,14.34,0,0,1,3.45,10.67ZM101.94,40.8a10.05,10.05,0,0,0,.34,1.6,10.28,10.28,0,0,0,2.16,4,10.41,10.41,0,0,0,5.17,3.27,10.45,10.45,0,0,0-2.5-5.59l-.11-.11A10.4,10.4,0,0,0,101.94,40.8Z"/><path d="M164.27,24.3l-1.4-1.36a15.05,15.05,0,0,1-4-6.51,15.44,15.44,0,0,1-.63-4.26,15,15,0,0,1,4.51-10.8L164.19,0l1.4,1.36c.3.29.58.59.85.9a15.05,15.05,0,0,1,3.73,9.87h0a15,15,0,0,1-4.5,10.8Zm-.07-18.42a11,11,0,0,0-1.92,6.27,11.38,11.38,0,0,0,.46,3.14,11,11,0,0,0,1.5,3.12,11.08,11.08,0,0,0,0-12.53Z"/><g class="cls-2"><path d="M195.92,168.89A56.21,56.21,0,0,1,162.63,158l-.11.05-1.09-1-1.24-1.24.7-.92V151l1.71,1.61.17-.22c.49-.61,1-1.22,1.5-1.8,1.27-1.45,2.5-2.73,3.75-3.91.13-.13.3-.29.48-.45a56.42,56.42,0,0,1,25.7-13.64c1.51-.35,3.09-.65,4.7-.88a57.05,57.05,0,0,1,14.38-.26,55.2,55.2,0,0,1,5.83.95,56.33,56.33,0,0,1,18,7.36c1.51.94,3,2,4.35,3L243,144l-1.15,1.58a56.29,56.29,0,0,1-37.69,22.71A57.65,57.65,0,0,1,195.92,168.89Zm-30.27-13.66a52.73,52.73,0,0,0,71.8-10.43c-.79-.56-1.61-1.1-2.44-1.62a52.4,52.4,0,0,0-16.77-6.84,51.28,51.28,0,0,0-5.41-.88,53.12,53.12,0,0,0-13.37.24c-1.49.22-3,.5-4.37.82a51.6,51.6,0,0,0-9.23,3.06,52.12,52.12,0,0,0-14.69,9.65l-.37.35c-1.2,1.13-2.34,2.32-3.53,3.68-.47.54-.94,1.09-1.38,1.65Z"/></g><g class="cls-2"><path d="M175.83,159.34q-2.69,0-5.41-.27a52.19,52.19,0,0,1-7.83-1.36,2.18,2.18,0,0,1-.4-.1l-1.35-.47v-1.86L161,155c.16-.65.32-1.29.5-1.93l0-.07.06-.23.06-.21c.13-.45.27-.91.41-1.36l0-.11c.22-.69.46-1.39.71-2.08a53.82,53.82,0,0,1,14-21l.08-.08a54,54,0,0,1,20.64-11.84c1.46-.46,3-.86,4.65-1.21a53.16,53.16,0,0,1,20.48-.31c1.27.22,2.6.51,3.94.85l1.9.48-.44,1.91a53.37,53.37,0,0,1-5.41,14c-.71,1.28-1.47,2.53-2.27,3.72a53.75,53.75,0,0,1-44.49,23.83Zm-10.42-5.09a48.15,48.15,0,0,0,5.41.83A49.7,49.7,0,0,0,217,133.28c.74-1.1,1.44-2.25,2.1-3.43a49.43,49.43,0,0,0,4.52-11c-.58-.12-1.15-.24-1.71-.33a49.16,49.16,0,0,0-19,.29c-1.54.33-2.94.69-4.29,1.12a50,50,0,0,0-19,10.9l-.08.08a49.83,49.83,0,0,0-13,19.47c-.23.64-.46,1.29-.67,1.95s-.3,1-.42,1.42l0,.1v.44Z"/></g><g class="cls-2"><path d="M161.09,158l-.55-2.17c0-.12-.05-.25-.08-.38-.2-.89-.38-1.82-.53-2.78,0-.13,0-.26-.06-.39s-.08-.53-.12-.79-.08-.54-.11-.85-.09-.68-.12-1.07c0-.17,0-.33,0-.49-.07-.69-.13-1.47-.17-2.33,0-.54-.05-1.11-.06-1.69a54.09,54.09,0,0,1,.32-6.83v-.1a52.91,52.91,0,0,1,1-5.84h0l.27-1.1.13-.49.27-1a54.07,54.07,0,0,1,14.36-24.09c.6-.59,1.22-1.16,1.89-1.74A53.71,53.71,0,0,1,200.33,92c.6-.15,1.22-.29,1.85-.41l1.91-.39.44,1.9a53.54,53.54,0,0,1,1,18.43,50.69,50.69,0,0,1-1,5.72,53,53,0,0,1-4.5,12.28l-.58,1.09c-.63,1.18-1.33,2.36-2.08,3.52q-.52.8-1.06,1.57a53.36,53.36,0,0,1-22.61,18.58,52.34,52.34,0,0,1-6.86,2.46c-1.14.33-2.22.6-3.3.83l-.2.1-.37,0Zm2.82-5.84c.06.38.12.76.2,1.15l1.6-.43a48.51,48.51,0,0,0,6.35-2.27A49.39,49.39,0,0,0,193,133.44c.34-.48.66-1,1-1.45a48.18,48.18,0,0,0,2.44-4.26l.55-1.1a48.87,48.87,0,0,0,3.62-10.27,46.32,46.32,0,0,0,.93-5.28h0A49.5,49.5,0,0,0,201,96a49.72,49.72,0,0,0-20.9,10.92c-.59.52-1.17,1-1.74,1.6A50.05,50.05,0,0,0,165,131.11l.13.13-.46,1.12a48.84,48.84,0,0,0-1.1,6.15v.12a50,50,0,0,0-.31,6.4c0,.53,0,1,.06,1.55,0,.77.08,1.49.16,2.21,0,.17,0,.26,0,.36v.11c0,.3.06.61.1.92s.05.5.09.7l0,.14c0,.21.05.43.09.64Z"/></g><g class="cls-2"><path d="M162.64,158.46l-1.33-1.3-.06-.06,0,0-.19-.2a52.35,52.35,0,0,1-3.59-4c-.1-.11-.24-.28-.37-.46s-.43-.54-.65-.82L156,151c-.62-.83-1.18-1.62-1.69-2.39l-.44-.44v-.24c-1-1.5-1.9-3.1-2.81-4.87l-.22-.45-.09-.18h0l-.17-.35a55.9,55.9,0,0,1-4.22-11.91c-.21-.9-.41-1.83-.57-2.75l0-.17A57.05,57.05,0,0,1,146,106c.12-.6.25-1.21.4-1.82a56.28,56.28,0,0,1,16.22-28.14l1.42-1.34,1.38,1.39a56.84,56.84,0,0,1,7.78,9.83l.39.44v.2a56.28,56.28,0,0,1,5.61,12.34,55.34,55.34,0,0,1,1.56,6.11,57,57,0,0,1,1.05,11.91h0c0,1.46-.11,2.94-.24,4.39a56.08,56.08,0,0,1-1.46,8.56l-.13.48a54.34,54.34,0,0,1-2,6.22v1.62h-.66a55.76,55.76,0,0,1-5.92,10.61v.55l-.67.36c-.9,1.24-1.89,2.46-2.92,3.64-.54.63-1.14,1.28-1.75,1.91s-1.09,1.12-1.67,1.67l-.75.75h-.08Zm-2.6-8.79.17.2.1.13a3.3,3.3,0,0,0,.22.27c.73.92,1.48,1.79,2.25,2.63l.41-.42c.57-.58,1.11-1.17,1.62-1.76.93-1.05,1.8-2.13,2.6-3.23v-.06l.65-.83a51.66,51.66,0,0,0,6.07-11.15l.39-1a50.4,50.4,0,0,0,1.73-5.57l.13-.49a52.3,52.3,0,0,0,1.24-7.47c.12-1.35.2-2.72.22-4.09h0a53,53,0,0,0-1-11.08,51.86,51.86,0,0,0-1.45-5.67,52.39,52.39,0,0,0-5.46-11.88l0-.06A52.46,52.46,0,0,0,164,80.35a52.29,52.29,0,0,0-13.66,24.79c-.15.57-.26,1.1-.36,1.64a53.09,53.09,0,0,0-.19,19.93l0,.19c.14.79.31,1.58.49,2.35A51.94,51.94,0,0,0,154,140l.37.33v.44l.24.48.22.43a51.08,51.08,0,0,0,2.69,4.56l.34.51c.51.76,1.08,1.55,1.73,2.4Zm9.79-1.53h0l-.32-.2Z"/></g><g class="cls-2"><path d="M164.46,157.73l-3.6,0v-.41a51.93,51.93,0,0,1-5.52-1.64h0l-.34-.12c-1.36-.5-2.61-1-3.84-1.58a53.34,53.34,0,0,1-22.33-19h-.92v-1.42a52.22,52.22,0,0,1-2.56-4.57c-.07-.12-.15-.28-.22-.45l0-.08A52.42,52.42,0,0,1,121,116.62c-.34-1.54-.61-3.09-.8-4.6a53.56,53.56,0,0,1,.92-19l.44-1.91,1.92.39a53.88,53.88,0,0,1,22.72,10.67c1.18,1,2.23,1.86,3.21,2.78a53.61,53.61,0,0,1,8.43,10.16l.23.36.4.4v.26a52.8,52.8,0,0,1,4.05,8.08,51.63,51.63,0,0,1,2.26,7l.06.24a52.89,52.89,0,0,1,1.32,8.15v.09a55,55,0,0,1,.15,6.1v0c0,.25,0,.49,0,.75q-.06,1.58-.28,3.51c-.06.6-.14,1.22-.23,1.83l0,.18c-.07.47-.15.94-.23,1.41l0,.24v.64l-.15.16c-.08.41-.17.82-.26,1.22l0,.17-.07.31v0Zm-8.35-6,.27.1a48,48,0,0,0,5,1.54v-.08l.12-.63c.07-.37.13-.75.18-1.12l0-.17c.08-.54.15-1.11.21-1.67.14-1.2.22-2.27.26-3.3,0-.27,0-.48,0-.68a50.87,50.87,0,0,0-.15-5.72v-.09a48.85,48.85,0,0,0-1.27-7.67l-.06-.25a47.66,47.66,0,0,0-2-6.24,48.85,48.85,0,0,0-3.92-7.75l0,0-.37-.62h0a49.71,49.71,0,0,0-7.82-9.42c-.9-.85-1.87-1.69-3-2.57a49.83,49.83,0,0,0-19.08-9.43,49.52,49.52,0,0,0-.45,15.65c.17,1.4.42,2.82.74,4.24a48.42,48.42,0,0,0,3.67,10.68l.08.12.13.3c0,.11.11.22.17.33q1.07,2.16,2.36,4.23l.33.51a49.39,49.39,0,0,0,21.23,18.4C153.88,150.82,155,151.26,156.11,151.69Z"/></g><g class="cls-2"><path d="M150.5,159.19q-1.09,0-2.17,0a53.64,53.64,0,0,1-26.24-8.1,53.09,53.09,0,0,1-17.27-17.33l-1.56-2.54.35-.06q-.58-.83-1.14-1.71L102,129v-.43A53.72,53.72,0,0,1,98,117l-.42-1.91,1.9-.46a53.23,53.23,0,0,1,22.28-.68c.5.09,1,.19,1.52.3a53.42,53.42,0,0,1,17.35,7,54.24,54.24,0,0,1,7.12,5.3c.61.52,1.24,1.11,1.93,1.78a53.72,53.72,0,0,1,7.9,9.72l.42.43v.26a51.7,51.7,0,0,1,2.57,4.72l.2.41c.58,1.21,1.12,2.47,1.6,3.74h0l.57,1.57c.08.21.15.44.22.65l0,.12c.08.23.15.47.22.7s.11.35.18.57l.11.36.09.32,0,.08c.28,1,.52,1.9.73,2.81l.16.18v2l-1.32.7-.27.06A54.22,54.22,0,0,1,150.5,159.19ZM109.81,134a49.14,49.14,0,0,0,14.4,13.62,49.63,49.63,0,0,0,36.14,6.56q-.16-.62-.35-1.26l-.17-.59c-.05-.17-.1-.34-.17-.52s-.14-.47-.21-.65l0-.13c-.06-.17-.12-.35-.18-.52l-.22-.63-.29-.26v-.54c-.51-1.34-1.08-2.66-1.7-3.93l-.2-.43a48,48,0,0,0-2.34-4.22l-.42-.42v-.25a49.66,49.66,0,0,0-7.11-8.68c-.63-.61-1.21-1.15-1.77-1.63a50.25,50.25,0,0,0-6.6-4.92,49.43,49.43,0,0,0-16.07-6.47l-1.39-.27a49.18,49.18,0,0,0-18.68.19,49.28,49.28,0,0,0,3.25,8.85h0l.35.33v.28c.88,1.35,1.78,2.62,2.69,3.76l2,2.54Z"/></g><g class="cls-2"><path d="M131.34,167.77a57.5,57.5,0,0,1-10.33-.94,56.32,56.32,0,0,1-36.84-24.07l-1.09-1.62L84.68,140l.68-.47a56.39,56.39,0,0,1,20.76-8.84l.56-.11a56.69,56.69,0,0,1,21-.1c.92.17,1.81.36,2.7.56l1.08.26a56.59,56.59,0,0,1,25.88,14.6l.59.6c.88.89,1.73,1.82,2.52,2.75.13.15.28.31.42.49l.15.18c1.12,1.34,2.15,2.69,3.09,4.06l.26.38.47.44v1.86l-.78.6-.25.17A56.25,56.25,0,0,1,131.34,167.77Zm-42.7-25.62a52.73,52.73,0,0,0,71.38,13c-.66-.91-1.34-1.78-2.05-2.63l-.25-.29c-.09-.12-.2-.23-.3-.35q-1.38-1.62-2.9-3.12l-.6-.59a52.59,52.59,0,0,0-23.46-13l-1-.24c-.85-.2-1.7-.37-2.55-.53a52.65,52.65,0,0,0-19.41.08l-.67.13A52.29,52.29,0,0,0,88.64,142.15Z"/></g><g class="cls-2"><path d="M219.35,114.65a35.89,35.89,0,0,1-10.95-1.71l-1.82-.59.57-2.06a34.59,34.59,0,0,1,1.42-3.89A35.79,35.79,0,0,1,224.65,89a35.83,35.83,0,0,1,27.6-2.44l1.86.6-.55,1.87a35.76,35.76,0,0,1-30.12,25.36h-.12A35.33,35.33,0,0,1,219.35,114.65Zm-7.79-5a31.89,31.89,0,0,0,11.41.75h.12a31.77,31.77,0,0,0,26-20.59q-.93-.23-1.9-.41A31.71,31.71,0,0,0,212.24,108Q211.88,108.84,211.56,109.69Z"/></g><g class="cls-2"><path d="M180.82,96.84,180.31,95a35.92,35.92,0,0,1-1.06-5.64,35.74,35.74,0,0,1,25.16-37.9c.59-.18,1.2-.35,1.81-.5l1.89-.46.51,1.88a35.44,35.44,0,0,1-3.69,27.46h0a35.45,35.45,0,0,1-22.21,16.57Zm24.4-41.49a31.73,31.73,0,0,0-22,33.54c.11,1,.27,2,.47,3a31.45,31.45,0,0,0,17.78-14.17h0A31.44,31.44,0,0,0,205.22,55.35Z"/></g><g class="cls-2"><path d="M51,155.52a40.17,40.17,0,0,1-26.19-9.67l-1.49-1.27,1.23-1.52c.5-.62,1-1.24,1.6-1.85a40.53,40.53,0,0,1,56.12-3.45L83.75,139l-1.24,1.52a40.29,40.29,0,0,1-27.75,14.79Q52.87,155.52,51,155.52ZM29,144.07a36.54,36.54,0,0,0,49.14-4.51q-1.19-.9-2.42-1.69a36.5,36.5,0,0,0-46.59,6.06Z"/></g><g class="cls-2"><path d="M104.82,110a35.82,35.82,0,0,1-32.5-21,36.73,36.73,0,0,1-2.24-6.65l-.44-1.91,1.9-.48a35.65,35.65,0,0,1,43.62,26.59l.44,1.9-1.89.48A36,36,0,0,1,104.82,110ZM74.5,83.39a32.72,32.72,0,0,0,1.47,4,31.76,31.76,0,0,0,34.77,18.13A31.73,31.73,0,0,0,74.5,83.39Z"/></g><g class="cls-2"><path d="M147.43,98.9l-1.91-.43a35.47,35.47,0,0,1-22.59-16.05,35.65,35.65,0,0,1-4.32-27.36l.47-1.9,1.91.42a35.53,35.53,0,0,1,22,15.09l.12.18.5.78A35.42,35.42,0,0,1,147.9,97ZM122.07,58a31.74,31.74,0,0,0,22.37,36.08,31.42,31.42,0,0,0-4.26-22.33l-.45-.71-.11-.17A31.49,31.49,0,0,0,122.07,58Z"/></g><g class="cls-2"><path d="M164.42,78.87,163,77.55a35.72,35.72,0,0,1-.14-51.08l1.4-1.37,1.4,1.37a36.12,36.12,0,0,1,4.83,5.82,35.74,35.74,0,0,1-4.63,45.21Zm-.19-48.09a31.64,31.64,0,0,0-1.37,40.66q.7.91,1.5,1.79A31.47,31.47,0,0,0,172.43,52h0a31.53,31.53,0,0,0-5.31-17.48A32.08,32.08,0,0,0,164.23,30.78Z"/></g><g class="cls-2"><path d="M244.85,134.06a28.21,28.21,0,0,1-14-3.75l-1.7-1,.93-1.72A28.38,28.38,0,0,1,264.3,114.3a28.59,28.59,0,0,1,4.81,2.18l1.7,1-.93,1.72A28.21,28.21,0,0,1,252.7,133,28.62,28.62,0,0,1,244.85,134.06Zm-10.23-6.28A24.42,24.42,0,0,0,265.32,119a24.49,24.49,0,0,0-2.32-.94,24.37,24.37,0,0,0-27.76,8.81C235,127.18,234.82,127.48,234.62,127.77Z"/></g><g class="cls-2"><path d="M215.34,88.88a22.92,22.92,0,0,1-2.86-.18l-1.94-.24.2-1.94a22.64,22.64,0,0,1,21.21-20.3,22.91,22.91,0,0,1,4.12.14l1.94.24-.2,1.95a22.65,22.65,0,0,1-22.46,20.33Zm-.3-4A18.66,18.66,0,0,0,233.5,70.18c-.45,0-.89,0-1.33,0A18.67,18.67,0,0,0,215,84.87Z"/></g><g class="cls-2"><path d="M179.75,63.94l-.62-1.84a24.77,24.77,0,0,1-1.2-5.9,25.35,25.35,0,0,1,16.13-25.73c.5-.2,1.07-.4,1.72-.6l1.87-.57.62,1.86a25.17,25.17,0,0,1-1.54,19.61,25.43,25.43,0,0,1-2,3.28l-.07.1a25.47,25.47,0,0,1-13,9.23ZM195,34.39a21.35,21.35,0,0,0-13.1,21.48,20.8,20.8,0,0,0,.46,3,21.6,21.6,0,0,0,9.08-7.15l.06-.08a21.38,21.38,0,0,0,1.65-2.69h0A21.18,21.18,0,0,0,195,34.39Z"/></g><g class="cls-2"><path d="M82.19,129A22.69,22.69,0,0,1,61.37,115.3l-.79-1.85,2-.86a22.63,22.63,0,0,1,26.79,6.56,22.67,22.67,0,0,1,3.14,5.25l.77,1.8-1.78.81A22.58,22.58,0,0,1,82.19,129ZM66,115.58a18.64,18.64,0,0,0,22,8.54,18.64,18.64,0,0,0-22-8.54Z"/></g><g class="cls-2"><path d="M118.54,88.39l-2-.12A25.37,25.37,0,0,1,92.84,60.86L93,58.91l1.95.12a25.17,25.17,0,0,1,17.65,8.7c.52.61,1,1.18,1.41,1.78a25.31,25.31,0,0,1,4.7,16.94ZM96.75,63.24A21.47,21.47,0,0,0,98.32,71a21.37,21.37,0,0,0,16.47,13.08,21.3,21.3,0,0,0-4-12.21c-.36-.5-.75-1-1.19-1.51A21.17,21.17,0,0,0,96.75,63.24Z"/></g><g class="cls-2"><path d="M147.26,65.47l-1.8-.76a26.17,26.17,0,0,1-14-14.16c-.06-.12-.11-.25-.16-.37l0-.11a26.16,26.16,0,0,1,.52-20.5l.81-1.78,1.8.76a26.4,26.4,0,0,1,13.73,35.14ZM134.61,33.11a22.16,22.16,0,0,0,.31,15.46l.05.13.06.15.06.12a22.17,22.17,0,0,0,10.08,11.17,22.38,22.38,0,0,0-10.56-27Z"/></g><g class="cls-2"><path d="M281.41,129.49a12.37,12.37,0,0,1-7.69-2.67l-1.53-1.21,1.17-1.56a12.39,12.39,0,0,1,3.46-3.16l.5-.29a12.17,12.17,0,0,1,4.43-1.47,12.88,12.88,0,0,1,2.72-.07,12.56,12.56,0,0,1,6.65,2.63l1.54,1.21-1.17,1.57a12.43,12.43,0,0,1-8.39,4.92A12.76,12.76,0,0,1,281.41,129.49Zm-3.27-4.66a8.58,8.58,0,0,0,8.56-1.14,8.5,8.5,0,0,0-2.57-.64,9,9,0,0,0-1.86.05,8.16,8.16,0,0,0-3.34,1.19l-.38.24Z"/></g><g class="cls-2"><path d="M49.74,125.38a12.66,12.66,0,0,1-3.31-.44,12.47,12.47,0,0,1-7.66-6l-1-1.71,1.69-1a12.11,12.11,0,0,1,1.81-.87,12.33,12.33,0,0,1,7.83-.41A12.13,12.13,0,0,1,51.82,116a12.4,12.4,0,0,1,5,4.92l.95,1.71-1.69,1A12.52,12.52,0,0,1,49.74,125.38Zm-6.12-6.56A8.55,8.55,0,0,0,52,121.08a8.45,8.45,0,0,0-2-1.53,8.23,8.23,0,0,0-1.82-.73A8.4,8.4,0,0,0,43.62,118.81Z"/></g><g class="cls-2"><path d="M268.58,87.06a10.59,10.59,0,0,1-4.39-1l-1.78-.81.77-1.8A10.63,10.63,0,0,1,277.34,78l1.78.81-.77,1.8a10.66,10.66,0,0,1-9.78,6.46Zm-.38-4A6.54,6.54,0,0,0,271,82.6,6.62,6.62,0,0,0,273.33,81a6.68,6.68,0,0,0-5.14,2Z"/></g><g class="cls-2"><path d="M206.06,47.35l-.16-2a14.54,14.54,0,0,1,1-6.49,14.27,14.27,0,0,1,2.55-4.24,14.57,14.57,0,0,1,10.11-5l2-.13.16,2a14.43,14.43,0,0,1-3.5,10.73h0a14.47,14.47,0,0,1-10.11,5ZM217.6,34q-.4.11-.78.25a10.49,10.49,0,0,0-4.4,3,10.31,10.31,0,0,0-1.85,3.07,10.47,10.47,0,0,0-.64,2.52A10.56,10.56,0,0,0,217.6,34Z"/></g><g class="cls-2"><path d="M7.68,151.65a11.72,11.72,0,0,1-6-1.66L0,149l1-1.71A11.77,11.77,0,0,1,5.14,143a11.53,11.53,0,0,1,3-1.3,11.37,11.37,0,0,1,1.65-.31A11.87,11.87,0,0,1,17.24,143l1.69,1-1,1.71a11.73,11.73,0,0,1-7.22,5.59A12,12,0,0,1,7.68,151.65Zm-1.81-4.22a7.79,7.79,0,0,0,7.17-1.91,7.75,7.75,0,0,0-2.75-.16,7.47,7.47,0,0,0-1.09.21,7.61,7.61,0,0,0-2,.85A7.79,7.79,0,0,0,5.88,147.43Z"/></g><g class="cls-2"><path d="M273.82,161.23q-1.9,0-3.81-.18a40.22,40.22,0,0,1-27.75-14.79L241,144.74l1.49-1.27c.37-.32.75-.63,1.14-.93a40.53,40.53,0,0,1,52.63,2,41.22,41.22,0,0,1,3.94,4.2l1.23,1.52L300,151.55A40.1,40.1,0,0,1,273.82,161.23Zm-27.14-16a36.54,36.54,0,0,0,49.14,4.5c-.71-.78-1.46-1.54-2.25-2.27a36.54,36.54,0,0,0-46.9-2.23Z"/></g><g class="cls-2"><path d="M320.79,159.22a10.79,10.79,0,0,1-2.79-.37,10.55,10.55,0,0,1-6.55-5.07l-1-1.7,1.68-1a11,11,0,0,1,2.07-.95l0,0,.36-.1.11,0,2.56-.74v.36a10.83,10.83,0,0,1,3.08.36l.32.09h0l.18.06.1,0a10.61,10.61,0,0,1,5.92,4.88l1,1.7-1.67,1A10.54,10.54,0,0,1,320.79,159.22Zm-4.31-5.54a6.79,6.79,0,0,0,5.42,1.44A6.63,6.63,0,0,0,320,154h0l-.34-.12-.32-.1A6.73,6.73,0,0,0,316.49,153.68Z"/></g><g class="cls-2"><path d="M59.83,83.12a10.06,10.06,0,0,1-3.64-.68A10,10,0,0,1,50.55,77l-.77-1.8,1.79-.81a10.18,10.18,0,0,1,7.84-.24l.12,0,.06,0a9.91,9.91,0,0,1,5.47,5.35l.76,1.8L64,82.2A10.16,10.16,0,0,1,59.83,83.12ZM55.67,77.5a6.06,6.06,0,0,0,2,1.2,6.18,6.18,0,0,0,2.31.41,6,6,0,0,0-1.87-1.17l-.11,0h0A5.91,5.91,0,0,0,55.67,77.5Z"/></g><g class="cls-2"><path d="M113.47,54.12,111.52,54a14.4,14.4,0,0,1-10.11-5,14.19,14.19,0,0,1-3-5.5,14,14,0,0,1-.52-5.23l.17-1.95,1.95.12a14.42,14.42,0,0,1,9.92,4.8l.23.26a14.34,14.34,0,0,1,3.45,10.67ZM101.94,40.8a10.05,10.05,0,0,0,.34,1.6,10.28,10.28,0,0,0,2.16,4,10.41,10.41,0,0,0,5.17,3.27,10.45,10.45,0,0,0-2.5-5.59l-.11-.11A10.4,10.4,0,0,0,101.94,40.8Z"/></g><g class="cls-2"><path d="M164.27,24.3l-1.4-1.36a15.05,15.05,0,0,1-4-6.51,15.44,15.44,0,0,1-.63-4.26,15,15,0,0,1,4.51-10.8L164.19,0l1.4,1.36c.3.29.58.59.85.9a15.05,15.05,0,0,1,3.73,9.87h0a15,15,0,0,1-4.5,10.8Zm-.07-18.42a11,11,0,0,0-1.92,6.27,11.38,11.38,0,0,0,.46,3.14,11,11,0,0,0,1.5,3.12,11.08,11.08,0,0,0,0-12.53Z"/></g></g></g></svg>